<?xml version="1.0" standalone="no"?>
<!DOCTYPE svg PUBLIC "-//W3C//DTD SVG 20010904//EN"
 "http://www.w3.org/TR/2001/REC-SVG-20010904/DTD/svg10.dtd">
<svg version="1.0" xmlns="http://www.w3.org/2000/svg"
 width="124.000000pt" height="74.000000pt" viewBox="0 0 124.000000 74.000000"
 preserveAspectRatio="xMidYMid meet">

<g transform="translate(0.000000,74.000000) scale(0.100000,-0.100000)"
fill="#000000" stroke="none">
<path d="M1035 670 c-4 -6 -2 -17 4 -24 8 -9 8 -30 -1 -72 -6 -32 -13 -61 -15
-63 -6 -8 -62 64 -63 80 0 23 -31 33 -48 15 -20 -20 -8 -46 22 -46 27 0 77
-55 70 -75 -7 -16 22 -38 41 -31 8 3 15 12 15 21 0 17 38 35 76 35 17 0 24 6
24 19 0 29 -21 37 -39 15 -19 -22 -68 -46 -75 -36 -7 12 15 116 29 132 7 8 10
21 8 28 -6 15 -39 16 -48 2z m-85 -79 c0 -14 -18 -23 -30 -16 -6 4 -8 11 -5
16 8 12 35 12 35 0z m98 -109 c2 -7 -3 -12 -12 -12 -9 0 -16 7 -16 16 0 17 22
14 28 -4z"/>
<path d="M260 409 c0 -84 -5 -159 -10 -170 -12 -22 -78 -27 -97 -8 -9 9 -19 8
-38 -5 l-27 -18 23 -24 c47 -50 141 -51 186 -2 36 39 43 74 43 229 l0 149 -40
0 -40 0 0 -151z"/>
<path d="M420 355 l0 -205 40 0 40 0 0 90 0 91 83 -3 82 -3 3 -87 3 -88 34 0
35 0 0 205 0 205 -35 0 -34 0 -3 -82 -3 -83 -82 -3 -83 -3 0 86 0 85 -40 0
-40 0 0 -205z"/>
<path d="M820 355 l0 -205 125 0 125 0 0 35 0 35 -90 0 -90 0 0 170 0 170 -35
0 -35 0 0 -205z"/>
</g>
</svg>
